<svg id="レイヤー_1" xmlns="http://www.w3.org/2000/svg" width="202.4" height="60" viewBox="0 0 202.4 60"><style>.st0{fill:#a6a6a6}.st1{fill:#fff}.st2{fill:url(#SVGID_1_)}.st3{fill:url(#SVGID_2_)}.st4{fill:url(#SVGID_3_)}.st5{fill:url(#SVGID_4_)}.st6{opacity:.2}.st6,.st7,.st8{enable-background:new}.st7{opacity:.12}.st8{opacity:.25;fill:#fff}.st9{fill:#fff;stroke:#fff;stroke-width:.2;stroke-miterlimit:10}</style><title>google-play-badge</title><g id="artwork"><path d="M7.5 0h187.4c4.1 0 7.5 3.4 7.5 7.5v45c0 4.1-3.4 7.5-7.5 7.5H7.5A7.6 7.6 0 0 1 0 52.5v-45C0 3.4 3.4 0 7.5 0z"/><path class="st0" d="M194.9 1.2c3.5 0 6.3 2.8 6.3 6.3v45c0 3.5-2.8 6.3-6.3 6.3H7.4a6.3 6.3 0 0 1-6.2-6.3v-45C1.2 4 4 1.2 7.5 1.2h187.4m0-1.2H7.5A7.6 7.6 0 0 0 0 7.5v45C0 56.6 3.3 60 7.5 60h187.4c4.1 0 7.5-3.4 7.5-7.5v-45c0-4.1-3.3-7.5-7.5-7.5z"/><path class="st1" d="M97 19.2a5.6 5.6 0 1 0 5.6 5.6v-.1c0-3-2.4-5.5-5.5-5.5 0-.1 0-.1-.1 0zm0 8.9c-1.7 0-3.1-1.4-3.1-3.4s1.4-3.4 3.1-3.4 3.2 1.4 3.2 3.4-1.5 3.4-3.2 3.4zm-12.1-8.9a5.6 5.6 0 1 0 5.6 5.6v-.1c0-3-2.4-5.5-5.5-5.5-.1-.1-.1-.1-.1 0zm0 8.9c-1.7 0-3.2-1.4-3.2-3.4s1.5-3.4 3.2-3.4c1.7 0 3.1 1.4 3.1 3.4s-1.5 3.4-3.1 3.4zm-14.6-7.2v2.3H76a4.8 4.8 0 0 1-1.3 3 5.9 5.9 0 0 1-4.4 1.8 6.3 6.3 0 0 1-6.3-6.3 6.3 6.3 0 0 1 10.6-4.6l1.6-1.7a8.2 8.2 0 0 0-5.9-2.4 8.9 8.9 0 0 0-8.8 8.7c0 4.8 4 8.7 8.8 8.7a8 8 0 0 0 6.1-2.4c1.5-1.6 2-3.8 2-5.5l-.1-1.5-8-.1zm59.4 1.8c-.5-1.2-1.9-3.5-4.8-3.5s-5.3 2.3-5.3 5.6c0 3 2.4 5.5 5.4 5.5h.1c1.9 0 3.6-.9 4.7-2.4l-1.9-1.3c-.6.9-1.6 1.5-2.7 1.5-1.2 0-2.2-.6-2.7-1.7l7.4-3.1-.2-.6zm-7.6 1.9a3 3 0 0 1 2.8-3.2h.1a2 2 0 0 1 2.1 1.2l-5 2zM116 30h2.4V13.6H116V30zm-4-9.6a4.3 4.3 0 0 0-3-1.3c-2.8 0-5.3 2.4-5.3 5.6s2.6 5.5 5.3 5.5a4 4 0 0 0 3-1.3h.1v.8c0 2.1-1.1 3.2-3 3.2-1.2 0-2.3-.8-2.8-1.9l-2.1.9a5 5 0 0 0 4.9 3.2c2.9 0 5.3-1.6 5.3-5.7v-10H112v1zm-2.8 7.7c-1.7 0-3.1-1.4-3.1-3.4s1.4-3.4 3.1-3.4c1.7 0 3 1.4 3 3.4s-1.3 3.4-3 3.4zm32-14.5h-5.8V30h2.4v-6.2h3.4c2.7 0 5.4-1.9 5.4-5.1s-2.7-5.1-5.4-5.1zm.1 7.9h-3.5v-5.6h3.5c1.6 0 2.8 1.3 2.8 2.8s-1.3 2.8-2.8 2.8zm15.1-2.4c-1.8 0-3.6.8-4.4 2.5l2.2.9c.4-.9 1.3-1.2 2.2-1.2 1.3 0 2.6.8 2.6 2.1v.2c-.8-.4-1.7-.6-2.6-.6-2.3 0-4.7 1.3-4.7 3.7 0 2.2 1.9 3.6 4 3.6 1.3.1 2.5-.5 3.1-1.6h.1V30h2.3v-6.3c.1-2.9-2.1-4.6-4.8-4.6zm-.3 9c-.8 0-1.9-.4-1.9-1.4 0-1.2 1.4-1.7 2.6-1.7.8 0 1.6.2 2.3.6a3.1 3.1 0 0 1-3 2.5zm13.8-8.6l-2.8 7.1h-.1l-2.9-7.1h-2.6l4.4 9.9-2.5 5.5h2.5l6.8-15.4h-2.8zm-22 10.5h2.4V13.6h-2.4V30z"/><linearGradient id="SVGID_1_" gradientUnits="userSpaceOnUse" x1="32.7" y1="451.1" x2="7.6" y2="476.2" gradientTransform="translate(0 -438)"><stop offset="0" stop-color="#00a0ff"/><stop offset="0" stop-color="#00a1ff"/><stop offset=".3" stop-color="#00beff"/><stop offset=".5" stop-color="#00d2ff"/><stop offset=".8" stop-color="#00dfff"/><stop offset="1" stop-color="#00e3ff"/></linearGradient><path class="st2" d="M15.6 11.3c-.5.6-.7 1.3-.6 2v33.2c0 .8.2 1.5.7 2.1l.1.1 18.6-18.6v-.4L15.8 11.2l-.2.1z"/><linearGradient id="SVGID_2_" gradientUnits="userSpaceOnUse" x1="50.7" y1="468" x2="14.5" y2="468" gradientTransform="translate(0 -438)"><stop offset="0" stop-color="#ffe000"/><stop offset=".4" stop-color="#ffbd00"/><stop offset=".8" stop-color="orange"/><stop offset="1" stop-color="#ff9c00"/></linearGradient><path class="st3" d="M40.5 36.4l-6.2-6.3v-.4l6.2-6.2.2.1 7.3 4.2c2.1 1.2 2.1 3.2 0 4.3l-7.3 4.2-.2.1z"/><linearGradient id="SVGID_3_" gradientUnits="userSpaceOnUse" x1="37.2" y1="471.4" x2="3.1" y2="505.6" gradientTransform="translate(0 -438)"><stop offset="0" stop-color="#ff3a44"/><stop offset="1" stop-color="#c31162"/></linearGradient><path class="st4" d="M40.7 36.3L34.3 30 15.7 48.7c.7.7 1.8.8 3.1.1l21.9-12.5"/><linearGradient id="SVGID_4_" gradientUnits="userSpaceOnUse" x1="10.9" y1="438.2" x2="26.2" y2="453.5" gradientTransform="translate(0 -438)"><stop offset="0" stop-color="#32a071"/><stop offset=".1" stop-color="#2da771"/><stop offset=".5" stop-color="#15cf74"/><stop offset=".8" stop-color="#06e775"/><stop offset="1" stop-color="#00f076"/></linearGradient><path class="st5" d="M40.7 23.6L18.8 11.2c-1.3-.7-2.4-.6-3.1.1L34.3 30l6.4-6.4z"/><path class="st6" d="M40.5 36.2L18.8 48.5c-1.2.7-2.3.6-3 0l-.1.1.1.1c.7.6 1.8.6 3 0l21.9-12.5h-.2z"/><path class="st7" d="M15.6 48.5c-.5-.6-.7-1.3-.7-2.1v.2c0 .8.2 1.5.7 2.1l.1-.1-.1-.1zM48 31.9l-7.5 4.3.2.1 7.3-4.2c1.1-.6 1.6-1.4 1.6-2.1-.2.7-.7 1.4-1.6 1.9z"/><path class="st8" d="M18.8 11.4L48 28c.9.6 1.5 1.2 1.6 1.9 0-.8-.5-1.5-1.6-2.1L18.8 11.2C16.7 10 15 11 15 13.4v.2c-.1-2.4 1.7-3.4 3.8-2.2z"/></g><path id="Layer_3" class="st9" d="M62.7 40.5l5.9-.5 3.6-.2v1.1c-.9 0-1.8 0-2.6.2-1.8.7-3 2.3-3 4.3 0 2.6 2.4 3.4 4.6 3.5l-.4 1.1c-2.5-.1-5.3-1.4-5.3-4.4 0-1.8.9-3.5 2.5-4.5-1.2.1-4.8.5-6.3.8l-.1-1.2 1.1-.2zm8.7 3.9l-.7.3-1.1-1.9.7-.3 1.1 1.9zm1.5-.6l-.7.3-1.1-1.9.7-.3 1.1 1.9zm13.4 2.4h-5.5v3c0 .7-.2 1-.7 1.2-.5.2-1.3.2-2.8.1l-.4-1h2.5c.3 0 .4-.1.4-.4v-2.9h-5.5v-1h5.5V43h-4.7v-1h4.7v-2.1l-4.4.3-.2-.9c3.2-.2 7.1-.5 9.1-1.1l.7.8c-1.4.4-2.8.7-4.3.8V42h4.8v1h-4.8v2.2h5.5l.1 1zm4.1-6.8l-.2.9a22.2 22.2 0 0 0-.5 6.9l.7-1.9.6.4-.9 3-.1.6v.5l-1 .1a20.2 20.2 0 0 1 .1-9.7l.1-.9 1.2.1zm3.1 6.4l-.2 1.2c0 .6.4 1.2 2.3 1.2 1.1 0 2.2-.1 3.3-.4V49l-3.3.3c-2.2 0-3.2-.7-3.2-2l.2-1.5h.9zm-.5-5.4c1.8.2 3.7.2 5.5 0v1.1H93v-1.1zm14.4-1.4c0 2.4.3 7.5 5.6 10.6a3 3 0 0 0-.8.8 12.1 12.1 0 0 1-5.4-7.5c-.7 3.1-2.7 5.8-5.4 7.5l-.9-.8c3-1.6 4.6-4.3 5.5-8.1l.6.1-.2-1.7h-3.3v-1l4.3.1zm18.8 9.4c-.6.7-1.5 1.1-2.4 1.1-.9 0-1.5-.6-1.5-1.7 0-1.5.5-3.6.5-5 0-.8-.4-1.1-1.1-1.1-1.1 0-2.7 1.3-3.9 2.6v4.8l.1.8h-1.2v-4.7l-2.2 3.2-.6-.9 3-4 .1-1.3-2.6.3-.1-1.1h.9l1.9-.2v-2.3h1.2l-.2 2h.1l.4.4-.6.9v.8c1-1 2.8-2.2 4-2.2 1.3 0 1.9.7 1.9 1.8 0 1.3-.5 3.6-.5 5 0 .5.2.8.7.8.7 0 1.4-.4 2-1.1l.1 1.1zm7.5-5.7l.2 3.4c1.5.4 2.9 1.2 4.1 2.3l-.6 1c-1-1-2.1-1.7-3.4-2.2v.8c0 1.1-.6 2-2.4 2s-3.2-.6-3.2-2.1c0-1.2 1.1-2.2 3.4-2.2l1.1.1-.1-3.1v-2.4l-.1-1.3h1.3l-.1 1.3v1.4a51 51 0 0 0 3.9-.2v1l-4.1.2zm-.9 4.1l-1.3-.1c-1.4 0-2.1.4-2.1 1.2 0 .8.7 1.1 2 1.1 1 0 1.5-.4 1.5-1.4l-.1-.8zm13.3-3.8a11 11 0 0 0-3.6.7l-1.1.4-.3-1.2 1.2-.2c1.3-.4 2.6-.6 4-.6 1.9 0 3.3 1.1 3.3 3 0 2.9-2.6 4.5-6 5.1l-.6-1.1c3.2-.4 5.5-1.6 5.5-4-.2-1.3-1.1-2.1-2.4-2.1zm2.3-3.4l-.2 1.1-5.7-.6.2-1 5.7.5z"/></svg>