<?xml version="1.0" encoding="utf-8"?>
<!-- Generator: Adobe Illustrator 16.0.0, SVG Export Plug-In . SVG Version: 6.00 Build 0)  -->
<!DOCTYPE svg PUBLIC "-//W3C//DTD SVG 1.1//EN" "http://www.w3.org/Graphics/SVG/1.1/DTD/svg11.dtd">
<svg version="1.1" id="レイヤー_1" xmlns="http://www.w3.org/2000/svg" xmlns:xlink="http://www.w3.org/1999/xlink" x="0px"
	 y="0px" width="180px" height="180px" viewBox="0 0 180 180" enable-background="new 0 0 180 180" xml:space="preserve">
<g>
	<path fill="#0058A0" d="M167.148,12.672v76.464H42.804V12.672H167.148 M170.855,0H39.096c-4.932,0-8.964,4.032-8.964,8.964v83.845
		c0,4.932,4.032,9,8.964,9H170.82c4.932,0,8.964-4.033,8.964-9V8.964C179.82,4.032,175.788,0,170.855,0L170.855,0z"/>
	<path fill="#0058A0" d="M137.195,94.968v24.084H12.852V42.624h25.02V29.952H9.144c-4.932,0-8.964,4.032-8.964,9v83.808
		c0,4.932,4.032,9,8.964,9h131.724c4.932,0,8.964-4.031,8.964-9V94.968H137.195z"/>
</g>
</svg>
