<svg xmlns="http://www.w3.org/2000/svg" width="136.28" height="88.83" viewBox="0 0 136.28 88.83"><defs><style>.cls-1{fill:#dcdddd;}.cls-2{fill:#878787;}.cls-3{fill:#707070;}.cls-4{fill:#fff;}.cls-5{fill:#f2f8f9;}.cls-6{fill:#f2f2f2;}.cls-7{fill:#b9c3c9;}.cls-8{fill:#fbe34d;fill-rule:evenodd;}</style></defs><title>アセット 5</title><g id="レイヤー_2" data-name="レイヤー 2"><g id="icon_design" data-name="icon design"><path class="cls-1" d="M131.57,88.83H95.77a4.71,4.71,0,0,1-4.71-4.71V19.9a4.71,4.71,0,0,1,4.71-4.71h35.8a4.71,4.71,0,0,1,4.71,4.71V84.12a4.71,4.71,0,0,1-4.71,4.71"/><path class="cls-2" d="M128.38,85.63H92.57a4.7,4.7,0,0,1-4.71-4.7V16.71A4.71,4.71,0,0,1,92.57,12h35.81a4.71,4.71,0,0,1,4.71,4.71V80.93a4.7,4.7,0,0,1-4.71,4.7"/><path class="cls-3" d="M111.33,79.31h-1.71a1.57,1.57,0,0,1-1.56-1.57V76a1.57,1.57,0,0,1,1.56-1.57h1.71A1.57,1.57,0,0,1,112.89,76v1.7a1.57,1.57,0,0,1-1.56,1.57"/><rect class="cls-4" x="92.95" y="21.1" width="35.05" height="47.09"/><polygon class="cls-5" points="92.95 61.46 92.95 21.09 124.63 21.09 92.95 61.46"/><rect class="cls-1" x="3.5" y="17.71" width="71.31" height="45.42" rx="2.75"/><rect class="cls-6" y="14.21" width="71.31" height="45.42" rx="2.75"/><rect class="cls-7" y="20.42" width="71.31" height="3.57"/><rect class="cls-7" x="5.52" y="31.16" width="29.55" height="2.32"/><rect class="cls-7" x="5.52" y="36.58" width="29.55" height="2.32"/><circle class="cls-7" cx="53.16" cy="33.31" r="5.66"/><path class="cls-7" d="M53.36,39.68a8.59,8.59,0,0,0-8.76,6.59c-.41,1.53-1.41,5.35-1.94,7.35a1,1,0,0,0,1,1.26H63a1,1,0,0,0,1-1.26c-.51-2-1.5-5.82-1.94-7.35C60.92,42,58.21,39.68,53.36,39.68Z"/><polygon class="cls-8" points="92.1 0 93.98 3.15 96.74 0.73 97.55 4.31 100.92 2.87 100.59 6.51 104.24 6.18 102.79 9.55 106.37 10.37 103.95 13.12 107.1 15 103.95 16.88 106.37 19.64 102.79 20.45 104.24 23.82 100.59 23.48 100.92 27.14 97.55 25.69 96.74 29.27 93.98 26.85 92.1 30 90.22 26.85 87.47 29.27 86.65 25.69 83.28 27.14 83.62 23.48 79.97 23.82 81.41 20.45 77.84 19.64 80.25 16.88 77.1 15 80.25 13.12 77.84 10.37 81.41 9.55 79.97 6.18 83.62 6.51 83.28 2.87 86.65 4.31 87.47 0.73 90.22 3.15 92.1 0"/></g></g></svg>