<svg xmlns="http://www.w3.org/2000/svg" viewBox="0 0 67.5 88.1"><path fill="#BABABA" d="M2.8 2.8h46.3l18.4 18.6V88H2.8V2.8z"/><path fill="#E8ECED" d="M0 0h46.3l18.4 18.6v66.7H0V0z"/><path fill="#9CB3B7" d="M46.2 0l18.5 18.4H46.2V0z"/><path fill="#F25D49" d="M0 8.9h24.7v9.4H0z"/><path fill="none" stroke="#F25D49" stroke-width="5" stroke-miterlimit="10" d="M26.8 52.6c5.6-14.7 6-23.3 2.4-23-3.6.2-1.9 15 6.5 24 6.4 6 18.7 11.5 19.4 6.4.9-5.6-12.2-2.8-23.3-.4S6 68.6 10.3 73.8c3.6 4.5 12.9-10.2 16.5-21.2z"/></svg>