<svg id="box_150_100" xmlns="http://www.w3.org/2000/svg" viewBox="0 0 150 100"><defs><style>.cls-1{fill:#dcdddd;}.cls-2,.cls-3{fill:#70b8c4;}.cls-3{fill-rule:evenodd;}.cls-4{fill:#c9caca;}.cls-5{fill:#fff;}.cls-6{fill:#21599b;}.cls-7{fill:#dfe9ea;}.cls-8{fill:#c1ced6;}.cls-9{fill:#f4f4f4;}</style></defs><title>icon_63</title><polygon class="cls-1" points="87.43 36.35 79.46 36.35 79.46 47.19 87.43 47.19 87.43 51.85 98.7 41.77 87.43 31.7 87.43 36.35"/><rect class="cls-2" x="76.67" y="33.14" width="10.84" height="11.27" transform="translate(43.32 120.87) rotate(-90)"/><polygon class="cls-3" points="95.7 38.77 84.43 28.7 84.43 48.85 95.7 38.77"/><path class="cls-1" d="M69.82,89.41V17.6H61.44v-8H23.21v8H14.84V89.41h-5v4h65v-4Zm-18.55,0H33.38V75.88H51.27Z"/><path class="cls-4" d="M66.82,86.41V14.6h-55V86.41h-5v4h65v-4Zm-36.44,0V72.88H48.27V86.41Z"/><rect class="cls-5" x="19.6" y="22.28" width="6.68" height="7.44"/><rect class="cls-5" x="30.64" y="22.28" width="6.68" height="7.44"/><rect class="cls-5" x="41.69" y="22.28" width="6.68" height="7.44"/><rect class="cls-5" x="52.37" y="22.28" width="6.68" height="7.44"/><rect class="cls-5" x="19.6" y="33.17" width="6.68" height="7.44"/><rect class="cls-5" x="30.64" y="33.17" width="6.68" height="7.44"/><rect class="cls-5" x="41.69" y="33.17" width="6.68" height="7.44"/><rect class="cls-5" x="52.37" y="33.17" width="6.68" height="7.44"/><rect class="cls-5" x="19.6" y="44.07" width="6.68" height="7.44"/><rect class="cls-5" x="30.64" y="44.07" width="6.68" height="7.44"/><rect class="cls-5" x="41.69" y="44.07" width="6.68" height="7.44"/><rect class="cls-5" x="52.37" y="44.07" width="6.68" height="7.44"/><rect class="cls-6" x="20.21" y="6.6" width="38.23" height="7.99"/><rect class="cls-6" x="28.75" y="68.81" width="21.15" height="3.99"/><polygon class="cls-1" points="105.03 43.75 105.03 63.65 143.17 63.65 143.17 63.65 143.17 43.75 143.17 43.75 105.03 43.75"/><rect class="cls-7" x="102.03" y="40.75" width="38.14" height="19.9"/><path class="cls-8" d="M139.19,41.73V59.67H103V41.73h36.18m1-1H102v19.9h38.14V40.75Z"/><circle class="cls-9" cx="121.1" cy="50.7" r="5.21"/><circle class="cls-8" cx="132.05" cy="46.93" r="2.68"/><path class="cls-8" d="M132.15,50A4.08,4.08,0,0,0,128,53.07c-.19.73-.67,2.54-.91,3.48a.48.48,0,0,0,.48.6h9.18a.48.48,0,0,0,.48-.6c-.24-.94-.71-2.76-.92-3.48A3.89,3.89,0,0,0,132.15,50Z"/><rect class="cls-8" x="106.09" y="48.7" width="6.55" height="1.33"/><circle class="cls-8" cx="107.09" cy="51.7" r="0.99"/><circle class="cls-8" cx="109.37" cy="51.7" r="0.99"/><circle class="cls-8" cx="111.65" cy="51.7" r="0.99"/><polygon class="cls-1" points="90.05 61.63 98.03 61.63 98.03 72.47 90.05 72.47 90.05 77.12 78.78 67.05 90.05 56.98 90.05 61.63"/><rect class="cls-2" x="83.33" y="58.41" width="10.84" height="11.27" transform="translate(24.7 152.8) rotate(-90)"/><polygon class="cls-3" points="75.15 64.05 86.41 53.98 86.41 74.12 75.15 64.05"/></svg>