<svg id="レイヤー_1" xmlns="http://www.w3.org/2000/svg" width="202.5" height="60" viewBox="0 0 202.5 60"><style>.st0{fill:#a6a6a6}.st1{fill:#fff}</style><path class="st0" d="M195.3 60H7a7 7 0 0 1-7-7.1V7a7 7 0 0 1 7-7h188.2c3.9 0 7.2 3.1 7.2 7v45.9a7 7 0 0 1-7.1 7.1z"/><path d="M201 52.9c0 3-2.5 5.7-5.7 5.7H7c-3 0-5.5-2.6-5.5-5.7V7C1.3 4.1 3.9 1.5 7 1.5h188.2c3.2 0 5.7 2.6 5.7 5.7v45.9-.2z"/><path class="st1" d="M45.2 29.7c0-4.8 4-7.2 4.2-7.4a9 9 0 0 0-7-3.8c-3-.3-5.9 1.8-7.4 1.8s-3.8-1.8-6.3-1.8a9.1 9.1 0 0 0-7.8 4.8c-3.5 6-.9 14.5 2.4 19.4 1.5 2.4 3.5 4.9 6 4.8 2.4 0 3.3-1.5 6.3-1.5s3.8 1.5 6.3 1.5c2.6 0 4.2-2.4 5.9-4.7 1.8-2.7 2.5-5.4 2.5-5.6a8 8 0 0 1-5.1-7.5zm-4.7-14.2a8.4 8.4 0 0 0 1.8-6 8.4 8.4 0 0 0-7.7 8.7c2.2.1 4.5-1.1 5.7-2.7h.2zM81 25.8h-3l-1.5-5.2h-6L69 25.8h-3l5.7-17.7h3.4L81 25.8zm-5.1-7.5l-1.5-4.5-.9-3.3-.9 3.3-1.5 4.5h4.8zm19.6.9c0 2.2-.4 3.9-1.7 5.2a5 5 0 0 1-3.9 1.5c-1.8 0-3-.4-3.8-1.6v6.6h-2.9V13h2.4l.2 2c1-1.5 2.5-2.2 4.5-2.2 1.5 0 2.7.6 3.6 1.8 1.2 1.2 1.6 2.6 1.6 4.6zm-2.8.2c0-1-.2-2.1-.8-3a2.7 2.7 0 0 0-2.6-1.3c-.6 0-1.4.3-1.8.8-.8.7-1.3 1.7-1.4 2.7v2.1c0 .9.3 1.6.9 2.4a3 3 0 0 0 2.2.9 3 3 0 0 0 2.4-1.2c.8-1 1.1-2.1 1.1-3.4zm17.5-.2c.1 1.9-.6 3.8-1.8 5.2a5.2 5.2 0 0 1-3.9 1.5c-1.7 0-3-.4-3.6-1.6v6.6H98V13h2.4v2h.1a5 5 0 0 1 4.4-2.2c1.5 0 2.7.6 3.8 1.8s1.5 2.6 1.5 4.6zm-3 .2c0-1.2-.1-2.2-.8-3a2.8 2.8 0 0 0-2.4-1.3c-.7 0-1.4.3-2 .8-.6.4-.9 1.1-1 1.8l-.1.9v2.1c0 .9.3 1.6.9 2.4.5.6 1.2.9 2.1.9 1 0 2-.5 2.6-1.4.6-.9.9-2 .9-3.3l-.2.1zm23 1.5a5 5 0 0 1-1.5 3.6 7.6 7.6 0 0 1-5 1.5c-1.9 0-3.4-.3-4.5-1l.6-2.4c1.2.8 2.6 1.2 4 1.2 1 0 2-.3 2.5-.8.6-.5.9-1 .9-2 0-.8-.3-1.3-.8-1.8-.4-.5-1.3-.9-2.4-1.4-3-1.2-4.6-2.8-4.6-5.1 0-1.5.4-2.5 1.5-3.5a7 7 0 0 1 4.5-1.5c1.5 0 3 .3 3.9.9l-.8 2.2c-1-.5-2.2-.8-3.3-.8-1 0-1.8.3-2.4.8a2 2 0 0 0-.6 1.5c0 .8.2 1.3.8 1.8.5.5 1.3.9 2.5 1.5a7 7 0 0 1 3.3 2c.8.9 1.2 2 1.2 3l.2.3zm9.3-5.7h-3v6.1c0 1.5.5 2.4 1.5 2.4h1.4v1.8c-.6.3-1.2.4-2.1.4-1.2 0-2.1-.4-2.7-1.1-.6-.8-.9-1.8-.9-3.5V15h-2v-2h2v-2.4l2.7-.8V13h3.2l-.1 2.2zm14.1 4.2c0 2-.6 3.5-1.8 4.8a5.6 5.6 0 0 1-4.5 1.9c-1.9 0-3.4-.6-4.5-1.9a6.1 6.1 0 0 1-1.6-4.5c0-2.1.5-3.8 1.6-5 1.2-1.3 2.8-2 4.5-1.9 2 0 3.5.6 4.5 1.9a5.9 5.9 0 0 1 1.8 4.5v.2zm-3 0c0-1.2-.3-2.1-.8-3-.6-1-1.5-1.5-2.6-1.5-1.2 0-1.9.5-2.5 1.5-.6.9-.8 1.8-.8 3s.1 2.2.8 3c.6 1 1.5 1.5 2.5 1.5 1.1 0 2-.5 2.6-1.5.6-1 .8-2 .8-3zm12.1-3.8l-.9-.2c-1.1 0-1.8.4-2.2 1.2-.6.6-.8 1.5-.8 2.4v6.7H156V13h2.4v2.4h.1c.3-.8.8-1.5 1.5-2a3 3 0 0 1 2-.8h.8l-.1 3zm12.8 3.2l-.3 1.3h-8.4c0 1.2.5 2.2 1.2 3a5 5 0 0 0 2.9.8c1.1.1 2.3-.2 3.3-.6l.5 1.9a12 12 0 0 1-4.2.8c-1.9 0-3.6-.6-4.6-1.6a6.5 6.5 0 0 1-1.6-4.6c0-2 .4-3.6 1.5-4.8a5.2 5.2 0 0 1 4.5-2.1c1.8 0 3.1.8 4.2 2.1a6.4 6.4 0 0 1 1.1 3.9l-.1-.1zm-3-.8c0-.8-.1-1.5-.6-2.1a2.4 2.4 0 0 0-2.2-1.2c-.9 0-1.5.5-2.2 1.2-.5.6-.8 1.4-.8 2.1h6-.2zM69.4 40.5l.8-4.2 1.5.3-.8 3.8h1.2c2.4 0 3.5 1.2 3.5 3.8a14 14 0 0 1-1.1 6.1c-.6.9-1.2 1.2-2.2 1.2-.9 0-1.7-.1-2.6-.3v-1.5l2.2.5c.6 0 .9 0 1.2-.6.6-.9.9-3 .9-5.2 0-1.9-.4-2.5-2.1-2.5h-1.5c-.9 3.5-2.1 6.8-3.8 9l-1.3-.8c1.7-2.5 3-5.2 3.8-8.1l-3.6.4-.3-1.5 4.2-.4zm11.6 6l-1.5.3a12 12 0 0 0-3.3-6.9l1.4-.8c1.8 2.1 3 4.7 3.4 7.4zm4.2-1.2a11 11 0 0 1 5.7-2c2.9 0 4.5 1.2 4.5 3.5 0 3-2.4 4.6-7.8 4.6h-.9l-.3-1.5h1.4c4.5 0 6-1.2 6-3 0-1.5-.9-2.4-3-2.4-1.9 0-4.1 1-6 2.7l-1.2-.4c0-3.9.4-5.7 1.8-7.5l1.3.4c-1.2 1.5-1.5 3.3-1.5 5.6zm-.1-7.5l.3-1.5c2.4.3 6.1 1.2 7.9 1.8l-.4 1.5c-1.5-.8-5.6-1.5-7.8-2v.2zm17.4 4.5c1.2.8 3 1.8 4 2.7 1-1.5 1.8-3.3 2.2-5.1H103a26 26 0 0 1-4.5 5.2l-1.3-.9a20 20 0 0 0 6-7.9l1.5.6-.9 1.5h5.7l1 .8a17.2 17.2 0 0 1-9.6 12.5l-1.1-1.4c2.2-.8 4.2-2.2 5.7-4.1l-4.2-2.7 1.2-1.2zm6.9-6.6c.8.8 1.2 1.5 1.8 2.4l-.8.6c-.6-.9-1-1.6-1.8-2.4l.8-.6zm2.2-.4a10 10 0 0 1 1.8 2.4l-.8.5-1.8-2.4.8-.5zm9 4.2v-3h1.6v3h4.5l1.5.5c-.5 5.4-2.5 9.6-8.2 11.5l-.9-1.3c5.1-1.8 7-5.2 7.2-9.3H117V45h-1.5v-5.4h5.1v-.1zm16.4 1.6l-1.1 1.2c-1.1-.9-3-2.4-4.5-3.2l.9-1.2c1.6.9 3.1 1.9 4.5 3l.2.2zm6.7 0l.9 1.2a23 23 0 0 1-12 9l-.9-1.5c4.9-1.3 9.2-4.4 12-8.7zm16.8-2.5v11.8h-12.6V38.6h12.6zm-1.8 10.3v-8.8h-9.3v8.8h9.3zm19.7-5.7v1.5H164v-1.5h14.4zm14.1 2.4l-1.1 1.3a36 36 0 0 0-6.9-4.1v8.6h-1.7v-15h1.5v4.8c2.6 1 5.9 3 8.1 4.5v-.1zm-4.1-7.5l1.6 2.4-.8.6c-.4-.9-1-1.8-1.6-2.4l.8-.4v-.2zm1.8-1l1.8 2.4-.9.4c-.4-.8-.9-1.6-1.5-2.2l.6-.6z"/></svg>