<svg xmlns="http://www.w3.org/2000/svg" xmlns:xlink="http://www.w3.org/1999/xlink" viewBox="0 0 150 100"><defs><style>.a{fill:none;}.b{fill:#dcdddd;}.c{fill:#878787;}.d{fill:#707070;}.e{fill:#fff;}.f{fill:#f2f8f9;}.g{fill:#0a3e86;}.h{fill:url(#a);}.i{fill:url(#b);}</style><linearGradient id="a" x1="62.95" y1="47.47" x2="62.95" y2="52.67" gradientUnits="userSpaceOnUse"><stop offset="0" stop-color="#0082cc"/><stop offset="0.81" stop-color="#0a3e86"/></linearGradient><linearGradient id="b" x1="73.07" y1="31.99" x2="73.07" y2="44.99" gradientUnits="userSpaceOnUse"><stop offset="0" stop-color="#008ad5"/><stop offset="1" stop-color="#0a3e86"/></linearGradient></defs><rect class="a" width="150" height="100"/><path class="b" d="M100.38,100H53.78a6.12,6.12,0,0,1-6.13-6.11V10.28a6.12,6.12,0,0,1,6.12-6.12h46.61a6.13,6.13,0,0,1,6.13,6.12V93.87a6.12,6.12,0,0,1-6.13,6.13"/><path class="c" d="M96.22,95.84H49.62a6.13,6.13,0,0,1-6.13-6.12V6.13A6.12,6.12,0,0,1,49.62,0h46.6a6.12,6.12,0,0,1,6.13,6.11V89.72a6.12,6.12,0,0,1-6.12,6.12h0"/><path class="d" d="M74,87.61H71.82a2,2,0,0,1-2-2V83.35a2,2,0,0,1,2-2H74a2,2,0,0,1,2,2v2.22a2,2,0,0,1-2,2"/><rect class="e" x="50.11" y="11.84" width="45.62" height="61.29"/><polygon class="f" points="50.11 64.37 50.11 11.84 91.34 11.84 50.11 64.37"/><path class="g" d="M74.47,49.92a1.27,1.27,0,0,0-.79-2.34H72.59v5H74a1.38,1.38,0,0,0,1.54-1.39A1.18,1.18,0,0,0,74.47,49.92Zm-1.55-2h.63a1.33,1.33,0,0,1,.83.21.94.94,0,0,1,.34.78,1,1,0,0,1-.33.76,1,1,0,0,1-.68.2h-.79ZM74.84,52a1.52,1.52,0,0,1-1.09.3h-.83V50.13h.78a2.23,2.23,0,0,1,.93.14.92.92,0,0,1,.53.93A1,1,0,0,1,74.84,52Zm1.71.59h.36l.66-1.63h2.12l.66,1.63h.36l-2.06-5.12Zm1.14-1.93,1-2.35.93,2.35Zm7.87-3h.33v5.16l-3.56-4.37v4.18H82V47.47l3.56,4.37ZM88.37,50l2.55,2.59h-.44l-2.34-2.37-.14.13v2.24h-.33v-5H88v2.34l2.35-2.34h.43Z"/><path class="h" d="M59.59,47.58v5h-.67l-3-3.32v3.32h-1v-5h.67l3,3.32V47.58Zm1.78,0v5h2.76v-.83H62.34V50.36h1.72v-.83H62.34V48.42h1.79v-.84Zm5.3,2.49a1.66,1.66,0,1,0,1.65-1.72,1.62,1.62,0,0,0-1.65,1.72m-1,0a2.66,2.66,0,1,1,2.65,2.6,2.52,2.52,0,0,1-2.65-2.6"/><path class="e" d="M66.57,38.49a6.5,6.5,0,1,0,6.5-6.5,6.5,6.5,0,0,0-6.5,6.5"/><path class="i" d="M71,40.28a4.91,4.91,0,0,0-1.54-3.58l7.17-3.59a4.92,4.92,0,0,0,0,7.17l-7.17,3.59A4.92,4.92,0,0,0,71,40.28m-4.46-1.79a6.5,6.5,0,1,0,6.5-6.5,6.5,6.5,0,0,0-6.5,6.5"/></svg>