<?xml version="1.0" encoding="utf-8"?>
<!-- Generator: Adobe Illustrator 25.1.0, SVG Export Plug-In . SVG Version: 6.00 Build 0)  -->
<svg version="1.1" id="レイヤー_1" xmlns="http://www.w3.org/2000/svg" xmlns:xlink="http://www.w3.org/1999/xlink" x="0px"
	 y="0px" viewBox="0 0 70 70" style="enable-background:new 0 0 70 70;" xml:space="preserve">
<style type="text/css">
	.st0{fill:#F3F4F4;}
	.st1{fill:#EAEAEA;}
	.st2{fill:#E5E5E5;}
	.st3{fill:#DDDDDD;}
	.st4{fill:#21589A;}
	.st5{fill:#E65C57;}
	.st6{fill:#FFFFFF;}
	.st7{fill:#FBF68F;}
	.st8{fill:#E0D982;}
	.st9{fill:#FBE34D;}
	.st10{fill:#E0C646;}
	.st11{fill:#C18733;}
	.st12{fill:#AA752E;}
</style>
<path class="st0" d="M17.5,64.5H0V50.9h17.5V64.5z"/>
<path class="st1" d="M35,64.5H17.5V37.6H35V64.5z"/>
<path class="st2" d="M52.5,64.5H35V24h17.5V64.5z"/>
<path class="st3" d="M70,64.5H52.5V10.2H70V64.5z"/>
<path class="st4" d="M24.2,49.9l2.1-3.3c0.1-0.1,0.1-0.2,0.2-0.3c0.2-0.3,0.4-0.7,0.5-1s0.1-0.6,0.1-0.9s-0.1-0.7-0.2-0.9
	s-0.4-0.3-0.6-0.3c-0.7,0-1,0.5-1,1.5V45h-1.1v-0.3c-0.1-0.6,0.1-1.3,0.5-1.8s0.9-0.7,1.5-0.6c0.5,0,1.1,0.2,1.5,0.5
	c0.3,0.5,0.5,1,0.5,1.6c0,0.3-0.1,0.6-0.1,0.9C28,45.5,28,45.8,27.8,46c-0.1,0.3-0.3,0.5-0.5,0.8l-1.9,3h2.7v0.9h-4L24.2,49.9z"/>
<path class="st4" d="M8.6,54.9C8.4,55,8.2,55,8,55c-0.4,0.1-0.7,0.1-0.8,0.1v-0.7c0.7-0.1,1.3-0.4,1.7-0.9h0.8v8.2H8.6V54.9z"/>
<path class="st4" d="M42,36.2c-0.4-0.4-0.5-1-0.5-1.5v-0.3h1v0.2c0,0.3,0.1,0.7,0.2,1c0.1,0.2,0.4,0.4,0.7,0.3
	c0.3,0,0.6-0.1,0.7-0.3c0.2-0.4,0.2-0.7,0.2-1.1c0-0.4-0.1-0.8-0.3-1.1s-0.5-0.5-0.8-0.4h-0.1v-1.1h0.1c0.3,0,0.6-0.1,0.8-0.3
	c0.2-0.3,0.3-0.6,0.3-0.9s-0.1-0.6-0.2-0.9c-0.2-0.2-0.4-0.3-0.7-0.3s-0.6,0.1-0.7,0.4c-0.2,0.3-0.2,0.6-0.2,1V31h-1.1v-0.3
	c-0.1-0.6,0.1-1.1,0.5-1.5s0.9-0.6,1.5-0.6s1.1,0.2,1.5,0.6s0.5,1,0.5,1.5c0,0.4-0.1,0.8-0.3,1.2c-0.2,0.3-0.5,0.5-0.8,0.6
	c0.4,0.1,0.7,0.4,0.8,0.7c0.2,0.4,0.3,0.9,0.3,1.3c0.1,0.6-0.1,1.3-0.4,1.8c-0.4,0.4-1,0.7-1.5,0.6C42.9,36.9,42.4,36.6,42,36.2z"/>
<path class="st4" d="M61.1,20.9h-2.4v-1.2l2.1-4.9h1.3v5.1H63V21h-0.8v2.2h-1.1C61.1,23.2,61.1,20.9,61.1,20.9z M61.1,19.9v-3.6
	L59.8,20L61.1,19.9z"/>
<g>
	<g>
		<polygon class="st5" points="8.3,22.3 8.3,34.1 10.1,32.8 10.1,22.3 		"/>
		<polygon class="st5" points="11.2,22.3 11.2,31.8 13.9,29.7 16.6,31.8 16.6,22.3 		"/>
		<polygon class="st5" points="19.6,22.3 17.8,22.3 17.8,32.8 19.6,34.1 		"/>
		<polygon class="st6" points="16.6,22.3 16.6,31.8 17.8,32.8 17.8,22.3 		"/>
		<polygon class="st6" points="10.1,22.3 10.1,32.8 11.2,31.8 11.2,22.3 		"/>
	</g>
	<circle class="st7" cx="13.9" cy="13.9" r="10.9"/>
	<path class="st8" d="M13.9,24.9c6,0,10.9-4.8,10.9-10.9c0-3-1.2-5.7-3.1-7.6L6.2,21.6C8.2,23.6,10.9,24.9,13.9,24.9z"/>
	<circle class="st9" cx="13.9" cy="13.9" r="8.6"/>
	<path class="st10" d="M13.9,22.6c4.8,0,8.6-3.9,8.6-8.6c0-2.4-0.9-4.5-2.5-6L7.8,20C9.4,21.6,11.5,22.6,13.9,22.6z"/>
	<path class="st11" d="M19.2,12.8c0-0.1-0.1-0.1-0.1-0.1l-3.4-0.5l-1.5-3.1C14,9,13.8,9,13.8,9.1l-1.5,3.1l-3.3,0.5
		c-0.1,0-0.1,0.1-0.1,0.1s0,0.1,0.1,0.2l2.5,2.4l-0.6,3.3c0,0.1,0,0.1,0.1,0.2c0.1,0.1,0.1,0.1,0.2,0l3.1-1.7l3.1,1.7h0.1
		c0.1,0,0.1,0,0.1-0.1s0.1-0.1,0.1-0.2l-0.8-3.2l2.5-2.4C19.2,12.9,19.2,12.9,19.2,12.8z"/>
	<path class="st12" d="M19.2,12.8c0-0.1-0.1-0.1-0.1-0.1l-3.2-0.5l-5,4.8l-0.4,1.8c0,0.1,0,0.1,0.1,0.2c0.1,0.1,0.1,0.1,0.2,0
		l3.1-1.7l3.1,1.7h0.1c0.1,0,0.1,0,0.1-0.1s0.1-0.1,0.1-0.2l-0.6-3.3l2.5-2.4C19.2,12.9,19.2,12.9,19.2,12.8z"/>
</g>
</svg>
