<svg version="1.1" id="レイヤー_1" xmlns="http://www.w3.org/2000/svg" xmlns:xlink="http://www.w3.org/1999/xlink" x="0px"
	 y="0px" width="414" height="90" viewBox="0 0 414 90" style="enable-background:new 0 0 414 90;" xml:space="preserve">
<style type="text/css">
	.st0{fill:url(#SVGID_1_);}
	.st1{fill:url(#SVGID_2_);}
	.st2{display:none;fill:#FFFFFF;}
	.st3{display:none;fill:url(#SVGID_3_);}
	.st4{fill:#FFFFFF;}
</style>
<g transform="translate(-15 -443)">
	<g transform="translate(124.441 446.474)">
		
			<linearGradient id="SVGID_1_" gradientUnits="userSpaceOnUse" x1="-858.731" y1="576.3829" x2="-858.3409" y2="575.0879" gradientTransform="matrix(295.129 0 0 -76.5441 253494.25 44094.9102)">
			<stop  offset="0" style="stop-color:#0082CC"/>
			<stop  offset="1" style="stop-color:#0A3E86"/>
		</linearGradient>
		<path class="st0" d="M148.4,76.2l-0.5-5.3c1.6,0.3,3.1,0.5,4.7,0.5c1.1,0,1.5-0.4,1.6-1.5c0-1.6,0-15,0-17v0h-10.8
			c-1.3,0-2.9,0-4.1,0.2v-5.7c1.4,0.2,2.7,0.3,4.1,0.3h10.8v-3.4c0-1.2-0.2-2.5-0.4-3.7h6.3c-0.2,1.2-0.3,2.5-0.4,3.7v3.4h9.9
			c1.4,0,2.8-0.1,4.2-0.3v5.6c-1.3-0.1-3-0.1-4.1-0.1h-9.9v19.8c0,2.5-1.4,4-4.4,4C153,76.5,150.7,76.4,148.4,76.2z M199.9,76
			c0.2-1.8,0.3-3.7,0.3-5.6V56.5c-4.7,2.4-9.6,4.3-14.6,5.8l-3.1-5.2c6.8-1.5,13.3-4.1,19.3-7.7c4.2-2.6,7.9-5.8,11.1-9.6l4.5,4.1
			c-3.4,3.4-7.2,6.5-11.3,9.1v17.4c-0.1,1.9,0.1,3.7,0.4,5.6L199.9,76z M281.1,75.9c0.3-2,0.4-3.9,0.4-5.9V45.6
			c0-1.7-0.1-3.4-0.4-5.1h6.6c-0.2,1.7-0.4,3.4-0.4,5.1v6.2c6.1,1.8,12,4,17.8,6.6l-2.4,5.9c-5-2.5-10.1-4.6-15.3-6.3v12
			c0,1.2,0.2,4.2,0.4,5.9L281.1,75.9z M111.5,70.9c1.6-0.2,2.8-0.4,3.9-0.7c5.4-1.3,9.6-5.1,9.6-11.3c0-5.8-3.1-10.2-8.8-11.1
			c-0.6,3.9-1.4,7.7-2.5,11.4c-2.5,8.5-6.2,13.7-10.7,13.7c-4.6,0-8.6-5.1-8.6-12.2c0-9.7,8.5-18,19.4-18c10.4,0,17,7.3,17,16.4
			c0,8.8-5.4,15.1-16.1,16.7L111.5,70.9z M99.8,60.1c0,4.2,1.7,6.3,3.3,6.3c1.7,0,3.4-2.6,5.1-8.3c1-3.3,1.8-6.7,2.3-10.2
			C103.5,49.4,99.8,55.5,99.8,60.1z M229,70.1c5.7-0.8,11.3-2.7,16.3-5.6c6.6-3.9,12-9.6,15.5-16.5l3.3,6
			c-3.8,6.5-9.3,11.9-15.7,15.7c-4.8,3-10.2,5-15.8,6L229,70.1z M10,68.7l4.2-5.8c2.6,2.5,5.8,4.6,10.1,4.6c4.8,0,8.1-3,8.1-8.4
			c0-5.3-3.1-8.3-7.7-8.3c-2.7,0-4.2,0.7-6.9,2.4l-4.1-2.7l1.2-22.2h24.5v7.6H22.8l-0.9,9.7c1.7-0.9,3.6-1.3,5.5-1.3
			c7.7,0,14.1,4.6,14.1,14.5c0,10.2-7.6,16.1-16,16.1C19.7,75.1,14.1,72.8,10,68.7z M60.2,68.5c11.4-0.3,20.3-3.6,20.3-10.9
			c0-4-2.7-7-7.8-7c-6.2,0-16.1,4.2-20.5,6.1l-2.4-6c1.7-0.3,3.5-0.7,5.1-1.3c3.3-1,11.8-4,18-4c7.6,0,13.6,4.4,13.6,12.1
			c0,9.5-9.1,15.6-23.9,16.4L60.2,68.5z M137.4,67.5c3.2-3.2,5.9-6.9,8-11l4.8,2.3c-2.3,4.2-5,8.2-8.2,11.9L137.4,67.5z M163.8,59
			l4.6-2.5c2.7,3.6,5.1,7.3,7.3,11.2l-5,2.7C168.7,66.4,166.4,62.6,163.8,59z M230.3,46l4-4.2c3.9,2.7,7.5,5.7,11,9l-4.3,4.5
			C237.6,51.9,234.1,48.8,230.3,46L230.3,46z M166,42.2c0-2.7,2.2-4.9,4.9-4.9s4.9,2.2,4.9,4.9c0,2.7-2.2,4.9-4.9,4.9
			C168.2,47.2,166,45,166,42.2C166,42.3,166,42.2,166,42.2L166,42.2z M168.6,42.2c0,1.3,1,2.3,2.3,2.3c1.3,0,2.3-1,2.3-2.3
			s-1-2.3-2.3-2.3C169.6,39.9,168.6,40.9,168.6,42.2z M176.6,13.2c2-0.6,3.9-1.7,5.2-3.3c1.2-1.6,1.8-3.5,2-5.4l2.2,0.7
			c-0.2,0.5-0.3,0.8-0.4,1.2c-0.4,1.7-1.1,3.2-2.1,4.6c-1.4,1.8-3.2,3.1-5.3,3.9L176.6,13.2z M216.6,11.8l0.2,1.7
			c-1.6,0.4-3.4,0.8-4.8,1.1l-0.3-1.1c-1.9,0.4-3.9,0.7-5.5,1l-0.4-1.7c0.7-0.1,1.5-0.2,2.4-0.3V8.2h-2.2V6.6h2.2V5.5h-1.5V4.9
			l-0.3,0.2c-0.3-0.5-0.7-0.9-1.2-1.2c1.3-1,2.3-2.3,2.9-3.8h1.5c1,0.8,2,1.8,2.8,2.8l-1,1.1v1.5h-1.7v1.2h2.1v1.6h-2.1v3.9
			c0.7-0.1,1.5-0.2,2.2-0.4l0,0.9l0.5-0.1V0.6h7v7.1H217c0.1,0.6,0.3,1.2,0.5,1.8c0.6-0.4,1.1-0.9,1.6-1.4l1.3,1.3
			c-0.7,0.6-1.4,1.1-2.2,1.5c0.6,1,1.4,1.8,2.5,2.3c-0.5,0.5-0.9,1-1.2,1.6C218.2,14.1,217.2,13.1,216.6,11.8L216.6,11.8z
			 M214.4,12.2c0.7-0.2,1.4-0.3,2.1-0.5c-0.6-1.3-1-2.6-1.2-4h-0.9V12.2z M214.4,6.1h3.5V4.9h-3.5V6.1z M207.7,3.9h3.4
			c-0.6-0.8-1.2-1.5-1.8-2.1C208.9,2.5,208.3,3.3,207.7,3.9L207.7,3.9z M214.4,3.4h3.5V2.3h-3.5V3.4z M224.4,14.8V8.6
			c-0.4,0.4-0.9,0.8-1.3,1.2c-0.4-0.6-0.8-1.1-1.3-1.6c1.8-1.3,3.2-2.9,4.3-4.7l1.8,0.7c-0.5,0.8-1.1,1.7-1.7,2.4v8.2L224.4,14.8z
			 M118,14.8V9.7h8.2v5h-1.9v-0.6h-4.5v0.6L118,14.8z M119.8,12.7h4.5v-1.5h-4.5V12.7z M230,12.8c0.9,0,1.9,0,2.2,0
			c0.3,0,0.4-0.1,0.4-0.3V7.1h-4.7V5.3h8.7v1.8h-2.2v5.5c0,1-0.2,1.5-0.9,1.8c-1,0.3-2,0.4-3.1,0.3C230.4,14.1,230.2,13.4,230,12.8
			L230,12.8z M114.3,14.7V6.4c-0.4,0.5-0.8,1-1.3,1.5c-0.3-0.7-0.6-1.3-1-1.9c1.7-1.7,3-3.7,3.8-5.9l1.7,0.6c-0.4,1-0.9,2.1-1.5,3
			v11H114.3z M97.9,14.7V6.4c-0.4,0.5-0.8,1-1.3,1.5c-0.3-0.7-0.6-1.3-1-1.9c1.7-1.7,3-3.7,3.8-5.9l1.7,0.6c-0.4,1-0.9,2.1-1.5,3v11
			H97.9z M162.7,14.3c0.1-0.7,0.1-1.3,0.1-2V9.6c-1.5,0.8-3.2,1.4-4.8,1.9l-1.2-1.9c2.3-0.5,4.5-1.4,6.4-2.6c1-0.6,1.9-1.4,2.7-2.4
			h-5.7c-0.6,0-1.6,0-2.1,0.1V2.7c0.7,0.1,1.3,0.1,2,0.1h2.7V2c0-0.5,0-1-0.1-1.5h2.3c-0.1,0.5-0.1,1-0.1,1.5v0.8h1.9
			c0.4,0,0.9,0,1.3-0.2l1.3,1.3c-0.4,0.4-0.9,0.9-1.2,1.3c-1,1.1-2.1,2.2-3.3,3.1c0,1.3,0,3,0,4c0,0.6,0.1,1.5,0.1,2L162.7,14.3z
			 M100.5,14.3v-1.8h4.2V9.4h-3.3V7.6h3.3V4.8h-3.8V3.1h4.5c-0.8-0.6-1.7-1.2-2.6-1.7L104,0c1.3,0.6,2.5,1.4,3.6,2.3l-0.7,0.8h3.6
			v1.8h-3.8v2.7h3.4v1.8h-3.4v3.1h4.1v1.8L100.5,14.3z M193.5,14.1c0.1-0.7,0.2-1.5,0.2-2.2V2.8c0-0.6,0-1.3-0.2-1.9h2.5
			c-0.1,0.6-0.1,1.3-0.1,1.9v2.3c2.3,0.7,4.5,1.5,6.6,2.4l-0.9,2.2c-1.8-0.9-3.7-1.7-5.7-2.4v4.5c0,0.5,0.1,1.6,0.1,2.2L193.5,14.1z
			 M128.9,11.9l1.3-1.6c0.8,0.8,1.9,1.2,3,1.3c1.2,0,1.9-0.5,1.9-1.3c0-0.9-0.7-1.1-1.8-1.6L131.7,8c-1.4-0.4-2.3-1.7-2.4-3.1
			c0-1.9,1.7-3.4,4-3.4c1.4,0,2.7,0.5,3.7,1.5l-1.2,1.5c-0.7-0.6-1.6-1-2.5-1c-1,0-1.7,0.5-1.7,1.2c0,0.8,0.8,1.1,1.8,1.5l1.5,0.6
			c1.4,0.4,2.4,1.7,2.4,3.2c0,1.9-1.6,3.5-4.3,3.5C131.6,13.6,130,13,128.9,11.9L128.9,11.9z M33.2,7.5c0-3.8,2.1-6,5.2-6
			s5.2,2.2,5.2,6s-2.1,6.1-5.2,6.1S33.2,11.3,33.2,7.5z M35.6,7.5c0,2.5,1.1,4.1,2.8,4.1s2.8-1.6,2.8-4.1c0-2.5-1.1-4-2.8-4
			S35.6,5,35.6,7.5z M151.5,13.4V1.7h2.3v11.7H151.5z M140.1,13.4V1.7h3.9c2.4,0,4.2,0.7,4.2,2.9c0,1.1-0.6,2.1-1.6,2.5v0.1
			c1.3,0.2,2.3,1.4,2.2,2.8c0,2.4-2,3.4-4.5,3.4H140.1z M142.5,11.6h1.6c1.6,0,2.5-0.6,2.5-1.8c0-1.1-0.9-1.6-2.5-1.6h-1.6V11.6z
			 M142.5,6.5h1.4c1.5,0,2.1-0.6,2.1-1.5c0-1-0.7-1.4-2.1-1.4h-1.4V6.5z M88.1,13.4l-3-5.2l-1.5,2v3.3h-2.3V1.7h2.3v5.1h0l3.9-5.1
			H90l-3.6,4.6l4.2,7.1L88.1,13.4z M75.3,13.4l-3.4-6.3l-1.2-2.5h-0.1c0.1,1.3,0.3,2.7,0.3,4.1v4.7h-2.2V1.7h2.4l3.4,6.2l1.2,2.5
			h0.1c-0.1-1.2-0.3-2.8-0.3-4.1V1.7h2.2v11.7H75.3z M64.3,13.4l-0.8-3h-3.8l-0.8,3h-2.4l3.7-11.7H63l3.8,11.7H64.3z M60.5,7.3
			l-0.3,1.3H63l-0.4-1.3c-0.4-1.2-0.7-2.6-1-3.8h-0.1C61.2,4.8,60.9,6.1,60.5,7.3z M46.6,13.4V1.7h3.9c2.4,0,4.2,0.7,4.2,2.9
			c0,1.1-0.6,2.1-1.6,2.5v0.1c1.3,0.2,2.3,1.4,2.2,2.8c0,2.4-2,3.4-4.5,3.4L46.6,13.4z M48.9,11.6h1.6c1.6,0,2.5-0.6,2.5-1.8
			c0-1.1-0.9-1.6-2.5-1.6h-1.6L48.9,11.6z M48.9,6.5h1.4c1.5,0,2.1-0.6,2.1-1.5c0-1-0.7-1.4-2.1-1.4h-1.4L48.9,6.5z M23.5,13.4V1.7
			h7.2v1.9h-4.8v2.7h4.1v2h-4.1v3.1h5v2H23.5z M17.6,13.4l-3.4-6.3L13,4.6H13c0.1,1.3,0.3,2.7,0.3,4.1v4.7H11V1.7h2.4l3.4,6.2
			l1.2,2.5h0.1c-0.1-1.2-0.3-2.8-0.3-4.1V1.7H20v11.7H17.6z M206.2,9.2l1.2-0.3c0.3,0.9,0.5,1.8,0.6,2.7l-1.3,0.4
			C206.7,11,206.5,10,206.2,9.2z M210.1,11.3c0.3-0.9,0.5-1.8,0.6-2.7l1.4,0.3c-0.3,0.9-0.6,2-0.9,2.6L210.1,11.3z M165.9,9.2
			l1.3-1.5c1.3,0.7,2.6,1.4,3.8,2.3l-1.3,1.7C168.5,10.7,167.2,9.9,165.9,9.2z M174.7,5.5l1.9-0.7c0.4,0.8,1.2,2.7,1.5,3.6l-1.9,0.7
			C175.8,7.9,175.3,6.7,174.7,5.5z M118.3,8.9V7.4h7.7v1.5H118.3z M178.4,4.6l1.9-0.6c0.3,0.7,1.1,2.7,1.3,3.5l-1.9,0.7
			C179.3,6.9,178.9,5.8,178.4,4.6z M118.3,6.6V5.2h7.8v1.5L118.3,6.6z M222,3.4c1.4-0.9,2.6-2,3.6-3.4l1.8,0.7
			c-1.2,1.6-2.7,3-4.3,4.2C222.7,4.4,222.4,3.9,222,3.4z M117,4.4V2.9h10.1v1.5H117z M228.6,2.7V0.9h7.7v1.8H228.6z M118.5,2.1V0.6
			h7.2v1.5L118.5,2.1z"/>
	</g>
	<g transform="translate(15 443)">
		
			<linearGradient id="SVGID_2_" gradientUnits="userSpaceOnUse" x1="-742.812" y1="579.6048" x2="-743.4199" y2="580.3478" gradientTransform="matrix(90 0 0 -90 66928 52246)">
			<stop  offset="0" style="stop-color:#0082CC"/>
			<stop  offset="0.81" style="stop-color:#0A3E86"/>
		</linearGradient>
		<circle class="st1" cx="45" cy="45" r="45"/>
		<path class="st2" d="M26.4,23.2C26.4,23.2,26.3,23.3,26.4,23.2C26.3,23.3,26.3,23.3,26.4,23.2l-1.6,0.1H24
			c-0.1,0.2-0.2,0.6-0.5,1.2h0.8l1.3,0c0,0,0.1,0,0.1,0.1c0,0,0,0,0,0l0,1.4V29l0,1.4c0,0.1,0,0.1-0.1,0.1l-1.3,0h-1.3l-1.3,0
			c-0.1,0-0.1,0-0.1-0.1l0-1.4v-3l0-1.4c0-0.1,0-0.1,0.1-0.1l1.1,0c0.2-0.4,0.3-0.8,0.4-1.2H23l-1.5,0c0,0-0.1,0-0.1-0.1
			c0,0,0,0,0,0v-0.5c0,0,0-0.1,0.1-0.1c0,0,0,0,0,0l1.5,0h1.8l1.5,0c0,0,0.1,0,0.1,0.1c0,0,0,0,0,0L26.4,23.2z M25.1,29.9v-1.3h-2.7
			v1.3L25.1,29.9z M25.1,28v-1.2h-2.7v1.2L25.1,28z M25.1,26.3v-1.2h-2.7v1.2L25.1,26.3z M21.2,27.9c0,0.1,0,0.1-0.1,0.1l-1,0h-0.3
			v0.8l1.1,0c0.1,0,0.1,0,0.1,0.1v0.3c0,0.1,0,0.1-0.1,0.1l-1.1,0v0.8l1.1,0c0.1,0,0.1,0,0.1,0.1v0.3c0,0.1,0,0.1-0.1,0.1l-1.1,0
			v0.9h0.1l1.2,0c0,0,0.1,0,0.1,0.1c0,0,0,0,0,0v0.4c0,0,0,0.1-0.1,0.1c0,0,0,0,0,0l-1.2,0h-1.8v0.7c0,0.1,0,0.1-0.1,0.1h-0.4
			c-0.1,0-0.1,0-0.1-0.1l0-1v-2.8l-0.3,0.4c-0.1,0.1-0.1,0.1-0.1,0.1s-0.1,0-0.1-0.1c-0.1-0.1-0.2-0.1-0.2-0.2
			c-0.1,0.9-0.3,1.8-0.7,2.7c0,0.1-0.1,0.1-0.1,0.1s-0.1,0-0.1-0.1c-0.1-0.1-0.2-0.2-0.4-0.3c0.4-0.9,0.7-1.9,0.8-2.9
			c0.1-0.7,0.1-1.5,0.1-2.2l0-2.3c0,0,0-0.1,0.1-0.1c0,0,0,0,0,0l1.3,0h1.7l1.3,0c0,0,0.1,0,0.1,0.1c0,0,0,0,0,0l0,0.7v0.6l0,0.7
			c0,0,0,0.1-0.1,0.1c0,0,0,0,0,0l-1.3,0H17v0.3c0,0.8-0.1,1.6-0.2,2.4l0,0.1c0.4-0.5,0.8-1.1,1-1.8c0.1-0.2,0.1-0.5,0.2-0.8
			c0.2,0,0.4,0.1,0.5,0.2c0.1,0,0.1,0.1,0.1,0.1c0,0.1,0,0.1-0.1,0.1c-0.1,0.2-0.2,0.3-0.3,0.5l-0.1,0.2h1.1c0,0,0.1-0.2,0.2-0.5
			c0.1-0.2,0.1-0.4,0.2-0.6c0.2,0.1,0.4,0.1,0.5,0.2c0.1,0,0.1,0.1,0.1,0.1c0,0,0,0.1-0.1,0.1c0,0-0.1,0.1-0.1,0.1
			c-0.1,0.2-0.2,0.4-0.3,0.6h0.2l1,0c0.1,0,0.1,0,0.1,0.1L21.2,27.9z M20.2,25.6v-1H17v1H20.2z M19.3,31.4v-0.9h-1.2v0.9H19.3z
			 M19.3,30.1v-0.8h-1.2v0.8L19.3,30.1z M19.3,28.8V28h-1.2v0.8H19.3z M21.1,23.2C21.1,23.3,21,23.3,21.1,23.2
			C21,23.3,21,23.3,21.1,23.2l-1.5,0.1h-2.1l-1.4,0c0,0-0.1,0-0.1-0.1c0,0,0,0,0,0v-0.5c0,0,0-0.1,0.1-0.1c0,0,0,0,0,0l1.4,0h2.1
			l1.4,0c0,0,0.1,0,0.1,0.1c0,0,0,0,0,0L21.1,23.2z M23.3,31.3c0,0.1,0,0.1-0.1,0.1c-0.1,0-0.2,0.1-0.3,0.2
			c-0.5,0.5-1.1,0.9-1.8,1.2c-0.1,0-0.1,0.1-0.2,0.1c0,0-0.1-0.1-0.2-0.2c-0.1-0.1-0.2-0.2-0.3-0.3c0.7-0.3,1.4-0.7,1.9-1.2
			c0.1-0.1,0.2-0.3,0.3-0.4c0.2,0.1,0.3,0.2,0.5,0.3C23.3,31.2,23.3,31.3,23.3,31.3z M26.6,32.3c-0.1,0.1-0.2,0.2-0.3,0.4
			c-0.1,0.1-0.1,0.2-0.1,0.2c-0.1,0-0.1,0-0.2-0.1c-0.7-0.4-1.3-0.8-1.8-1.4c0,0,0,0,0-0.1c0,0,0-0.1,0.1-0.1l0.2-0.2
			c0,0,0.1-0.1,0.1-0.1c0,0,0.1,0,0.1,0C25.2,31.5,25.8,32,26.6,32.3L26.6,32.3z M38.5,28.9c-0.1,0.2-0.2,0.3-0.3,0.5
			c-0.1,0.1-0.1,0.2-0.1,0.2c-0.1,0-0.1,0-0.2,0c-1.7-0.3-3.3-0.9-4.8-1.6c-0.9,0.6-2,1-3,1.3c0.2,0,0.7,0,1.5,0h2.8l1.6,0
			c0.1,0,0.1,0,0.1,0.1l0,0.9v1l0,1.5c0,0.1,0,0.1-0.1,0.1h-0.5c-0.1,0-0.1,0-0.1-0.1v-0.5h-4.7v0.5c0,0.1,0,0.1-0.1,0.1h-0.5
			c-0.1,0-0.1,0-0.1-0.1l0-1.5v-0.9l0-1v0c-0.5,0.1-1,0.3-1.7,0.4c-0.1,0-0.1,0-0.2,0c-0.1,0-0.1-0.1-0.2-0.2
			c-0.1-0.2-0.2-0.3-0.3-0.4c1.7-0.3,3.3-0.8,4.8-1.6c-0.6-0.4-1.1-0.8-1.6-1.3c-0.6,0.5-1.2,0.9-1.9,1.3c-0.1,0-0.1,0.1-0.2,0.1
			c0,0-0.1,0-0.1-0.1c-0.1-0.1-0.2-0.3-0.4-0.4c1.3-0.6,2.4-1.4,3.3-2.5c0.1-0.2,0.2-0.4,0.3-0.6c0.2,0.1,0.4,0.1,0.6,0.2
			c0.1,0,0.1,0.1,0.1,0.1s0,0.1-0.1,0.2c-0.1,0.1-0.2,0.2-0.3,0.3C32.1,25,32,25.1,32,25.1h3c0.1,0,0.2,0,0.3,0c0,0,0.1,0,0.1,0
			c0.1,0,0.2,0.1,0.3,0.2c0.1,0.1,0.2,0.3,0.2,0.3c0,0.1,0,0.1-0.1,0.2c-0.1,0.1-0.3,0.2-0.4,0.3c-0.5,0.5-1.1,1-1.7,1.4
			C35.3,28.2,36.9,28.7,38.5,28.9z M35.4,31.7v-1.8h-4.7v1.8H35.4z M34.8,25.7h-3.4l-0.1,0.2c0.5,0.5,1.1,0.9,1.8,1.3
			C33.7,26.8,34.3,26.3,34.8,25.7z M37.8,25.6C37.8,25.6,37.8,25.7,37.8,25.6C37.8,25.7,37.8,25.7,37.8,25.6l-0.6,0.1
			c0,0-0.1,0-0.1-0.1c0,0,0,0,0,0v-1.7h-8.2v1.7c0,0,0,0.1-0.1,0.1c0,0,0,0,0,0h-0.5c0,0-0.1,0-0.1-0.1c0,0,0,0,0,0l0-1.2V24l0-0.6
			c0,0,0-0.1,0.1-0.1c0,0,0,0,0,0l1.7,0h2.6v-0.5c0-0.3,0-0.6-0.1-0.8c0.2,0,0.5,0,0.8,0.1c0.1,0,0.1,0,0.1,0.1c0,0.1,0,0.2-0.1,0.2
			c0,0.2-0.1,0.3-0.1,0.5v0.4h2.8l1.7,0c0,0,0.1,0,0.1,0.1c0,0,0,0,0,0l0,0.5v0.5L37.8,25.6z M50.4,26.1
			C50.4,26.2,50.4,26.2,50.4,26.1C50.3,26.2,50.3,26.2,50.4,26.1l-1.8,0.1h-2.1v1.1H48l1.7,0c0,0,0.1,0,0.1,0.1c0,0,0,0,0,0l0,1.5
			v1.5l0,1.4c0,0.3-0.1,0.6-0.3,0.8c-0.4,0.2-0.8,0.2-1.3,0.2c-0.1,0-0.2,0-0.2,0c0-0.1-0.1-0.1-0.1-0.2c0-0.2-0.1-0.3-0.2-0.4
			c0.3,0,0.6,0,0.9,0c0.1,0,0.2,0,0.3-0.1c0.1-0.1,0.1-0.2,0.1-0.3v-3.8h-2.5v2.6h1v-1c0-0.3,0-0.6-0.1-0.9c0.2,0,0.5,0,0.7,0.1
			c0.1,0,0.1,0.1,0.1,0.1c0,0.1,0,0.1,0,0.1c-0.1,0.2-0.1,0.4-0.1,0.5v1.1l0,0.8c0,0.1,0,0.1-0.1,0.1h-0.4c-0.1,0-0.1,0-0.1-0.1V31
			H45v0.6c0,0.1,0,0.1-0.1,0.1h-0.4c-0.1,0-0.1,0-0.1-0.1l0-0.9v-1.3c0-0.3,0-0.6-0.1-0.9c0.2,0,0.5,0,0.7,0.1c0.1,0,0.1,0,0.1,0.1
			c0,0.1,0,0.1-0.1,0.2C45,29,44.9,29.2,45,29.4v1.1h0.9v-2.6h-2.4v3.6l0,1.3c0,0.1,0,0.1-0.1,0.1h-0.5c0,0-0.1,0-0.1-0.1
			c0,0,0,0,0,0l0-1.3v-2.7l0-1.4c0,0,0-0.1,0.1-0.1c0,0,0,0,0,0l1.7,0h1.3v-1.1H44l-1.7,0c0,0-0.1,0-0.1-0.1c0,0,0,0,0,0v-0.5
			c0-0.1,0-0.1,0.1-0.1l1.7,0h0.5v-1.4h0l-1.7,0c0,0-0.1,0-0.1-0.1c0,0,0,0,0,0v-0.5c0-0.1,0-0.1,0.1-0.1l1.7,0h0v-0.3
			c0-0.4,0-0.8-0.1-1.2c0.2,0,0.5,0,0.7,0.1c0.1,0,0.1,0,0.1,0.1c0,0.1,0,0.1-0.1,0.2c-0.1,0.3-0.1,0.5-0.1,0.8v0.4h2v-0.3
			c0-0.4,0-0.8-0.1-1.2c0.2,0,0.5,0,0.7,0.1c0.1,0,0.1,0,0.1,0.1c0,0.1,0,0.1-0.1,0.2c-0.1,0.3-0.1,0.5-0.1,0.8v0.4h0.2l1.7,0
			c0.1,0,0.1,0,0.1,0.1v0.5c0,0.1,0,0.1-0.1,0.1l-1.7,0h-0.2v1.4h0.8l1.7,0c0.1,0,0.1,0,0.1,0.1L50.4,26.1z M47.2,25.6v-1.4h-2v1.4
			H47.2z M42,29.2c-0.3,0.9-0.6,1.8-1.1,2.8c-0.1,0.2-0.2,0.4-0.2,0.5c0,0.1,0,0.1-0.1,0.1c-0.1,0-0.1,0-0.2-0.1
			c-0.2-0.1-0.4-0.2-0.6-0.4c0.2-0.3,0.4-0.6,0.5-0.9c0.4-0.9,0.8-1.9,1.1-2.9c0.1,0.1,0.3,0.3,0.4,0.4C42,28.9,42,29,42,29
			C42,29.1,42,29.2,42,29.2z M42.3,23.6C42.3,23.6,42.3,23.7,42.3,23.6c0,0.1,0,0.2,0,0.2L42,24.2c-0.1,0.1-0.1,0.1-0.1,0.1
			c0,0-0.1,0-0.1,0c-0.5-0.5-1-1-1.6-1.4c0,0-0.1,0-0.1-0.1s0-0.1,0.1-0.1l0.3-0.3c0.1-0.1,0.1-0.1,0.1-0.1c0,0,0,0,0.1,0
			C41.3,22.7,41.8,23.1,42.3,23.6z M41.8,26.5C41.8,26.5,41.9,26.5,41.8,26.5c0,0.1,0,0.1,0,0.2L41.5,27c-0.1,0.1-0.1,0.1-0.1,0.1
			c0,0,0,0-0.1,0c-0.5-0.5-1-0.9-1.6-1.3c0,0-0.1,0-0.1-0.1s0-0.1,0.1-0.1l0.3-0.3c0-0.1,0.1-0.1,0.1-0.1c0,0,0.1,0,0.1,0
			C40.8,25.6,41.3,26,41.8,26.5z M62.4,31.6c-0.1,0.2-0.2,0.3-0.2,0.5c0,0.1,0,0.2-0.1,0.2c-0.1,0-0.1,0-0.2,0
			c-0.9,0.1-1.7,0.1-2.6,0.1c-1.4,0.1-2.8-0.2-3.9-0.9c-0.6-0.4-1.1-1-1.4-1.6c-0.3,0.9-0.9,1.8-1.5,2.6c-0.1,0.1-0.1,0.1-0.2,0.1
			c-0.1,0-0.1-0.1-0.2-0.1c-0.1-0.1-0.3-0.2-0.4-0.3c1.1-1.1,1.8-2.5,2.1-4c0-0.2,0.1-0.5,0.1-0.7c0,0,0-0.1,0-0.1
			c0.2,0,0.5,0.1,0.7,0.1c0.1,0,0.2,0.1,0.2,0.1c0,0.1,0,0.1-0.1,0.2c-0.1,0.1-0.1,0.3-0.2,0.4c0,0.2-0.1,0.5-0.2,0.9
			c0.3,0.7,0.9,1.3,1.5,1.8c0.3,0.2,0.6,0.4,1,0.5v-4.9h-1.5l-1.7,0c0,0-0.1,0-0.1-0.1c0,0,0,0,0,0l0-1.1v-1.5l0-1.1
			c0,0,0-0.1,0.1-0.1c0,0,0,0,0,0l1.7,0h3.6l1.7,0c0.1,0,0.1,0,0.1,0.1l0,1.1v1.5l0,1.1c0,0.1,0,0.1-0.1,0.1l-1.7,0h-1.4v2h2.1
			l1.7,0c0.1,0,0.1,0,0.1,0.1v0.5c0,0.1,0,0.1-0.1,0.1l-1.7,0h-2.1v2.5c0.6,0.1,1.2,0.1,1.8,0.1C60.3,31.9,61.4,31.8,62.4,31.6z
			 M59.9,26v-2.5h-5.7V26H59.9z M74.3,32.1c-0.1,0.1-0.2,0.3-0.3,0.5c-0.1,0.1-0.1,0.2-0.2,0.2c0,0-0.1,0-0.1,0
			c-1.4-0.1-2.7-0.5-3.9-1.2c-1.2,0.7-2.6,1.1-4,1.3c-0.1,0-0.1,0-0.1,0c-0.1,0-0.1-0.1-0.2-0.2c-0.1-0.2-0.2-0.3-0.3-0.4
			c1.4-0.1,2.7-0.5,4-1.1c-0.7-0.5-1.3-1.2-1.8-2c-0.4,0-0.7,0-0.9,0l-0.2,0h-0.1c-0.1,0-0.1,0-0.1-0.1v-0.5c0-0.1,0-0.1,0.1-0.1
			l1.6,0h3.9c0.1,0,0.1,0,0.2,0c0,0,0.1,0,0.1,0c0.1,0,0.2,0.1,0.3,0.2c0.2,0.2,0.3,0.3,0.3,0.3c0,0.1,0,0.1-0.1,0.2
			c-0.1,0.1-0.2,0.2-0.3,0.3c-0.5,0.6-1,1.2-1.7,1.6C71.7,31.7,72.9,32,74.3,32.1z M71.6,29.2h-3.5c0.5,0.7,1,1.2,1.7,1.6
			C70.5,30.4,71.1,29.8,71.6,29.2L71.6,29.2z M74.1,23.8C74.1,23.9,74.1,23.9,74.1,23.8l-1.8,0.1h-6.9v1.9c0,1.1,0,2.3-0.2,3.4
			c-0.1,1.2-0.5,2.3-1.1,3.4c0,0.1-0.1,0.1-0.1,0.1s-0.1,0-0.2-0.1c-0.1-0.2-0.3-0.3-0.5-0.4c0.6-1,1-2.2,1.1-3.4
			c0.1-1.1,0.2-2.1,0.1-3.2l0-2.4c0,0,0-0.1,0.1-0.1c0,0,0,0,0,0l1.7,0h2.4V23c0-0.3,0-0.7-0.1-1c0.3,0,0.6,0,0.8,0.1
			c0.1,0,0.1,0,0.1,0.1c0,0.1,0,0.2-0.1,0.2c-0.1,0.2-0.1,0.4-0.1,0.6v0.3h2.8l1.7,0c0.1,0,0.1,0,0.1,0.1V23.8z M74,25.9
			C74,25.9,74,26,74,25.9l-1.8,0.1h-0.7v0.6l0,1.1c0,0,0,0.1-0.1,0.1c0,0,0,0,0,0l-1.2,0h-1.2l-1.1,0c-0.1,0-0.1,0-0.1-0.1l0-1.1
			v-0.6h-0.3L66,26c-0.1,0-0.1,0-0.1-0.1v-0.5c0-0.1,0-0.1,0.1-0.1l1.6,0h0.3c0-0.4,0-0.8-0.1-1.1c0.2,0,0.5,0,0.7,0.1
			c0.1,0,0.1,0,0.1,0.1c0,0.1,0,0.1-0.1,0.2c-0.1,0.3-0.1,0.5-0.1,0.8h2.3c0-0.4,0-0.8-0.1-1.1c0.2,0,0.5,0,0.7,0.1
			c0.1,0,0.1,0,0.1,0.1c0,0.1,0,0.1-0.1,0.2c-0.1,0.3-0.1,0.5-0.1,0.8h0.7l1.7,0c0.1,0,0.1,0,0.1,0.1L74,25.9z M70.8,27.1v-1.2h-2.3
			v1.2H70.8z M34.1,64h-1.8L20.1,45.7V64h-1.8V42.7h1.8l12.3,18.3V42.7h1.8L34.1,64z M38.2,55.8c0-1.4,0.3-2.8,0.9-4.1
			c0.5-1.2,1.4-2.2,2.5-2.8c1.1-0.7,2.4-1,3.7-1c2-0.1,3.8,0.7,5.1,2.2c1.4,1.6,2.1,3.7,2,5.9v0.4c0,1.4-0.3,2.8-0.9,4.1
			c-0.5,1.2-1.4,2.2-2.5,2.8c-1.1,0.7-2.4,1-3.7,1c-2,0.1-3.8-0.8-5.1-2.2c-1.4-1.6-2.1-3.7-2-5.9L38.2,55.8z M39.9,56.3
			c-0.1,1.7,0.4,3.3,1.5,4.7c0.9,1.2,2.4,1.9,3.9,1.8c1.5,0,2.9-0.6,3.8-1.8c1-1.4,1.6-3.1,1.5-4.8v-0.3c0-1.1-0.2-2.3-0.7-3.3
			c-0.4-0.9-1.1-1.8-1.9-2.3c-0.8-0.6-1.8-0.8-2.8-0.8c-1.5,0-2.9,0.7-3.8,1.8c-1,1.4-1.6,3.1-1.5,4.8V56.3z M55.8,62.9
			c0-0.3,0.1-0.6,0.3-0.9c0.2-0.2,0.6-0.4,0.9-0.4c0.3,0,0.7,0.1,0.9,0.4c0.2,0.2,0.3,0.5,0.3,0.9c0,0.3-0.1,0.6-0.3,0.8
			c-0.3,0.2-0.6,0.3-0.9,0.3c-0.3,0-0.7-0.1-0.9-0.3C55.9,63.6,55.8,63.3,55.8,62.9z M68,64h-1.8V44.8l-5.8,2.2v-1.6l7.3-2.7H68
			L68,64z"/>
		<path class="st2" d="M79.2,44.3c0-0.4-0.3-0.7-0.7-0.7c-0.4,0-0.7,0.3-0.7,0.7c0,0.4,0.3,0.7,0.7,0.7C78.9,45,79.2,44.7,79.2,44.3
			z M75.5,43.6l-0.3,0.3l3,3l-3,3l0.3,0.3l3-3l3,3l0.3-0.3l-3-3l3-3l-0.3-0.3l-3,3L75.5,43.6z M75.9,46.2c-0.4,0-0.7,0.3-0.7,0.7
			c0,0.4,0.3,0.7,0.7,0.7c0.4,0,0.7-0.3,0.7-0.7C76.6,46.5,76.3,46.2,75.9,46.2z M81.1,47.5c0.4,0,0.7-0.3,0.7-0.7
			c0-0.4-0.3-0.7-0.7-0.7c-0.4,0-0.7,0.3-0.7,0.7C80.4,47.2,80.7,47.5,81.1,47.5L81.1,47.5z M77.8,49.4c0,0.4,0.3,0.7,0.7,0.7
			c0.4,0,0.7-0.3,0.7-0.7c0-0.4-0.3-0.7-0.7-0.7C78.1,48.8,77.8,49.1,77.8,49.4z"/>
	</g>
</g>
<linearGradient id="SVGID_3_" gradientUnits="userSpaceOnUse" x1="-742.8099" y1="579.6049" x2="-743.418" y2="580.348" gradientTransform="matrix(90 0 0 -90 66928 52246)">
	<stop  offset="0" style="stop-color:#0082CC"/>
	<stop  offset="0.81" style="stop-color:#0A3E86"/>
</linearGradient>
<circle class="st3" cx="45.2" cy="45" r="45"/>
<path class="st4" d="M76.3,33.1c0-0.4-0.3-0.7-0.7-0.7c-0.4,0-0.7,0.3-0.7,0.7c0,0.4,0.3,0.7,0.7,0.7C76,33.8,76.3,33.5,76.3,33.1z
	 M72.5,32.4l-0.3,0.3l3.1,3.1l-3.1,3.1l0.3,0.3l3.1-3.1l3.1,3.1l0.3-0.3l-3.1-3.1l3.1-3.1l-0.3-0.3l-3.1,3.1L72.5,32.4z M72.9,35.1
	c-0.4,0-0.7,0.3-0.7,0.7l0,0c0,0.4,0.3,0.7,0.7,0.7c0,0,0,0,0,0c0.4,0,0.7-0.3,0.7-0.7c0,0,0,0,0,0C73.6,35.4,73.3,35.1,72.9,35.1
	L72.9,35.1z M78.2,36.5c0.4,0,0.7-0.3,0.7-0.7c0-0.4-0.3-0.7-0.7-0.7c-0.4,0-0.7,0.3-0.7,0.7C77.5,36.1,77.8,36.5,78.2,36.5
	L78.2,36.5z M74.9,38.4c0,0.4,0.3,0.7,0.7,0.7c0,0,0,0,0,0c0.4,0,0.7-0.3,0.7-0.7c0-0.4-0.3-0.7-0.7-0.7S74.9,38,74.9,38.4
	C74.9,38.4,74.9,38.4,74.9,38.4z"/>
<path class="st4" d="M19,55.4c3.9,0.1,7.1-2.9,7.3-6.7c0-0.2,0-0.4,0-0.5c0-4.5-2.9-6.6-6.4-6.6c-0.9,0-1.7,0.2-2.5,0.6l0.4-4.4h7.5
	v-3.4H14.2l-0.6,10.1l1.9,1.2c0.9-0.7,2-1.1,3.1-1.1c2.1,0,3.5,1.3,3.5,3.8c0.2,1.9-1.2,3.6-3.1,3.8c-0.2,0-0.4,0-0.5,0
	c-1.7-0.1-3.4-0.8-4.6-2.1L12,52.6C13.8,54.4,16.4,55.4,19,55.4z M37.1,55.4c4.2,0,7-3.7,7-10.8s-2.8-10.7-7-10.7
	c-4.2,0-7,3.5-7,10.7C30.1,51.7,32.9,55.4,37.1,55.4z M37.1,52.2c-1.8,0-3.1-1.8-3.1-7.6c0-5.8,1.3-7.5,3.1-7.5
	c1.8,0,3.1,1.7,3.1,7.5C40.2,50.4,38.9,52.2,37.1,52.2z M54.7,55.4c4.2,0,7-3.7,7-10.8s-2.8-10.7-7-10.7c-4.2,0-7,3.5-7,10.7
	C47.7,51.7,50.5,55.4,54.7,55.4z M54.7,52.2c-1.8,0-3.1-1.8-3.1-7.6c0-5.8,1.3-7.5,3.1-7.5c1.8,0,3.1,1.7,3.1,7.5
	C57.9,50.4,56.5,52.2,54.7,52.2z M78.2,45.1v-1.8H65v1.8h3.5c-0.1,3.6-0.2,7.6-4.1,9.8c0.5,0.4,1,0.9,1.3,1.4c2.8-1.7,3.9-4.3,4.3-7
	h5c-0.2,3.2-0.4,4.7-0.8,5.1c-0.2,0.2-0.4,0.2-0.7,0.2c-0.4,0-1.5,0-2.5-0.1c0.3,0.5,0.6,1.1,0.6,1.8c0.9,0.1,1.7,0.1,2.6,0
	c0.6,0,1.2-0.3,1.6-0.8c0.6-0.7,0.8-2.5,1.1-7.1c0-0.2,0-0.8,0-0.8h-6.7c0.1-0.8,0.1-1.6,0.1-2.4L78.2,45.1z M33.4,70.9v-7.4h8v7.4
	H33.4z M31.5,61.8V74h1.9v-1.2h8V74h2V61.8H31.5z M55.1,70.9h4v-1.5h-4v-1.3c0.3,0.2,0.6,0.5,0.8,0.7c0.5-0.4,1-1,1.4-1.5
	c0.6,0.5,1.2,1,1.7,1.6l1-1.2c-0.7-0.6-1.3-1.2-2.1-1.8c0.2-0.6,0.3-1.1,0.4-1.7L56.7,64c-0.1,1.3-0.7,2.5-1.6,3.5v-3.7h-1.7v3.5
	c-0.4-0.5-0.9-0.9-1.4-1.4c0.2-0.6,0.3-1.2,0.4-1.8L50.7,64c0,1.5-0.8,3-2,3.9c0-0.8,0.1-1.5,0.1-2.2v-2.4h11v-1.6h-5.4v-1.3h-1.9
	v1.3H47v4.1c0,2.2-0.1,5.3-1.3,7.5c0.5,0.3,1.1,0.6,1.5,1c0.9-2,1.4-4.1,1.4-6.3c0.5,0.3,0.9,0.7,1.3,1.1c0.5-0.4,1-1,1.4-1.6
	c0.4,0.4,0.8,0.8,1.1,1.3l0.9-1v1.7h-3.8v1.5h3.8v1.5h-4.7v1.5h11.2v-1.5h-4.8L55.1,70.9z"/>
<path class="st4" d="M19.7,24.2c-0.2,0-0.6-0.3-0.6-0.5c0-0.3,0.4-0.7,0.9-1c0,0.5,0,0.9,0,1.1C20,24.1,19.9,24.2,19.7,24.2z M21,21
	c0-0.3,0-0.5,0-0.8c0.6-0.1,1.1-0.2,1.7-0.3l0-1.1c-0.5,0.1-1.1,0.3-1.6,0.3c0-0.2,0-0.4,0-0.6c0-0.2,0.1-0.6,0.1-0.8h-1.2
	c0,0.3,0.1,0.5,0.1,0.8c0,0.2,0,0.4,0,0.7c-0.2,0-0.4,0-0.5,0c-0.4,0-0.8,0-1.2-0.1l0,1.1c0.4,0,0.8,0,1.2,0c0.1,0,0.3,0,0.5,0V21
	c0,0.2,0,0.4,0,0.6c-1.1,0.5-2,1.3-2,2.1c0,0.9,1.2,1.7,2.1,1.7c0.6,0,1-0.3,1-1.4c0-0.3,0-1,0-1.7c0.5-0.2,1.1-0.2,1.7-0.2
	c0.8,0,1.3,0.4,1.3,1c0,0.6-0.6,1-1.3,1.1c-0.4,0.1-0.7,0.1-1.1,0.1l0.4,1.1c0.4,0,0.8-0.1,1.2-0.1c1.4-0.4,2-1.1,2-2.2
	c0-1.2-1.1-2-2.4-2c-0.6,0-1.2,0.1-1.7,0.2V21z M23.2,19.5c0.8,0.4,1.5,0.8,2.1,1.3l0.5-0.9c-0.7-0.5-1.4-0.9-2.2-1.3L23.2,19.5z
	 M29.4,17.8c0,0.6-0.1,1.3-0.2,1.9c-0.4,0-0.9,0.1-1.2,0.1c-0.3,0-0.6,0-0.9,0l0.1,1.2c0.3,0,0.7-0.1,1-0.1c0.2,0,0.4-0.1,0.8-0.1
	c-0.4,1.5-1,2.9-1.8,4.2l1.2,0.5c0.8-1.5,1.4-3.1,1.8-4.8c0.3,0,0.5,0,0.6,0c0.6,0,0.9,0.1,0.9,0.8c0,0.8-0.1,1.7-0.4,2.4
	c-0.1,0.3-0.4,0.4-0.7,0.4c-0.4,0-0.7-0.1-1.1-0.2l0.2,1.2c0.3,0.1,0.7,0.1,1.1,0.1c0.6,0.1,1.2-0.3,1.5-0.8c0.4-1,0.5-2.1,0.5-3.2
	c0-1.3-0.7-1.7-1.6-1.7c-0.2,0-0.4,0-0.7,0c0.1-0.3,0.1-0.6,0.2-0.9c0-0.2,0.1-0.5,0.2-0.7L29.4,17.8z M32.7,19.2
	c0.7,1,1.2,2.2,1.5,3.4l1.1-0.5c-0.4-1.2-0.9-2.3-1.6-3.3L32.7,19.2z M43.8,19c-0.1-0.4-0.3-0.9-0.5-1.3L42.7,18
	c0.2,0.4,0.3,0.8,0.5,1.3L43.8,19z M37,18.1c0,0.3,0,0.5-0.1,0.8c-0.2,1.1-0.3,2.3-0.3,3.5c0,1,0.2,2,0.5,2.9l1-0.1
	c0-0.1,0-0.3,0-0.4c0-0.1,0-0.3,0.1-0.4c0.2-0.7,0.4-1.5,0.6-2.2l-0.6-0.4c-0.1,0.3-0.3,0.7-0.4,1c-0.1-1.3,0-2.6,0.3-3.9
	c0-0.2,0.1-0.5,0.2-0.7L37,18.1z M41.3,18.1c0,0.2,0.1,0.4,0.1,0.6c0,0.3,0,0.7,0,1.2c-0.3,0-0.6,0-0.9,0c-0.5,0-0.9,0-1.4-0.1V21
	c0.5,0,1,0.1,1.4,0.1c0.3,0,0.6,0,0.9,0v0.2c0,1.5-0.2,2.3-0.8,3c-0.3,0.3-0.7,0.5-1,0.7l1,0.8c1.8-1.1,1.9-2.4,1.9-4.5V21
	c0.5,0,1-0.1,1.4-0.1l0-1.2c-0.4,0.1-0.9,0.1-1.4,0.2v-1.1c0-0.2,0-0.4,0-0.6L41.3,18.1z M43.7,17.7c0.2,0.4,0.4,0.8,0.5,1.3
	l0.6-0.2c-0.1-0.4-0.3-0.8-0.5-1.3L43.7,17.7z M47,22.1c-0.1,0.5-0.2,1-0.3,1.5c0,1.2,1,1.9,2.8,1.9c0.8,0,1.6-0.1,2.4-0.2l0-1.2
	c-0.8,0.2-1.6,0.3-2.4,0.3c-1.3,0-1.6-0.4-1.6-1.1c0-0.4,0.1-0.7,0.2-1.1L47,22.1z M52.8,18.6c-0.6,0.2-1.2,0.3-1.7,0.5
	c-0.2-0.5-0.4-0.9-0.5-1.4l-1.3,0.2c0.2,0.3,0.3,0.6,0.4,0.9c0.1,0.1,0.1,0.3,0.2,0.4c-1.1,0.1-2.2,0.1-3.3-0.1l0,1.1
	c1.2,0.1,2.5,0.1,3.8,0c0.3,0.6,0.6,1.2,0.8,1.6c-0.3,0-0.8-0.1-1.1-0.1L50,22.7c0.7,0.1,1.5,0.2,2,0.3l0.6-0.7
	c-0.4-0.7-0.8-1.6-1.2-2.3c0.5-0.1,1.1-0.2,1.5-0.4L52.8,18.6z M58.9,23.8c0,0.5-0.3,0.7-0.8,0.7c-0.6,0-0.9-0.2-0.9-0.5
	c0-0.3,0.3-0.5,1-0.5c0.2,0,0.5,0,0.7,0.1C58.9,23.6,58.9,23.7,58.9,23.8L58.9,23.8z M62.5,24c-0.7-0.6-1.6-1.1-2.5-1.3
	c0-0.3,0-0.7-0.1-1c0.9,0,1.6-0.1,2.4-0.2v-1.1c-0.7,0.1-1.5,0.2-2.4,0.2l0-0.9c0.9,0,1.6-0.1,2.2-0.2l0-1c-0.7,0.1-1.4,0.2-2.1,0.2
	l0-0.4c0-0.2,0-0.4,0.1-0.6h-1.2c0,0.2,0,0.4,0,0.6v0.4h-0.4c-0.6,0-1.3-0.1-1.9-0.2l0,1c0.6,0.1,1.3,0.1,1.9,0.1h0.4v0.9h-0.4
	c-0.7,0-1.4-0.1-2.2-0.2l0,1.1c0.6,0.1,1.6,0.1,2.1,0.1h0.5c0,0.3,0,0.5,0,0.8c-0.2,0-0.4,0-0.5,0c-1.4,0-2.2,0.6-2.2,1.5
	c0,0.9,0.8,1.5,2.2,1.5c1.2,0,1.8-0.6,1.8-1.3c0-0.1,0-0.2,0-0.3c0.7,0.3,1.3,0.7,1.8,1.2L62.5,24z M70.6,20.3L70,20.6
	c0.3,0.4,0.5,0.8,0.7,1.3l0.7-0.3C71.1,21.1,70.9,20.7,70.6,20.3z M71.6,19.9L71,20.2c0.3,0.4,0.5,0.8,0.7,1.2l0.7-0.3
	C72.2,20.7,71.9,20.3,71.6,19.9z M64.6,18.8l0.1,1.2c1-0.2,2.9-0.4,3.7-0.5c-0.8,0.7-1.3,1.7-1.3,2.7c0,1.9,1.8,2.9,3.6,3.1l0.4-1.2
	c-1.5-0.1-2.9-0.6-2.9-2.1c0-1.1,0.8-2.1,1.9-2.5c0.6-0.1,1.1-0.1,1.7-0.1l0-1.2c-0.6,0-1.6,0.1-2.5,0.2c-1.6,0.1-3.1,0.3-3.9,0.3
	C65.3,18.8,65,18.8,64.6,18.8z"/>
</svg>
